<svg xmlns="http://www.w3.org/2000/svg" viewBox="0 0 624.65 441.53"><defs><style>.cls-1{fill:#9baab2;}.cls-2{fill:#ece3d1;}.cls-3{fill:#121d22;}.cls-4{fill:#90a1ac;}.cls-5{fill:#93a1aa;}</style></defs><title>Asset 1</title><g id="Layer_2" data-name="Layer 2"><g id="Layer_1-2" data-name="Layer 1"><path class="cls-1" d="M611.73,222a35.74,35.74,0,0,0,1.93,11c2.89,8.54,8.28,23.61,8.28,23.61,2.89,8.43,3.94,17,.78,25.9-2.19,6.2-9.32,11-14.86,14-22.5,11.51-45,23.12-67.64,34.27-10.89,4.86-61.11,30.56-73.42,36.91-36,18.67-72.7,36.3-108.56,55.2-11.31,5.89-25.64,12.86-30.05,14.92-10.84,4.86-20,5.07-31.43,0-10.09-4.69-19.63-10.53-29.83-15-5.27-2.69-2.18-1.17-7.15-3.55,0,0-12-6.48-19-9.48-30.75-17-63.23-30.55-93.74-48-5.19-3.07-10.56-6.19-16.33-8-10-4.82-19.92-9.66-29.59-15.07a66.08,66.08,0,0,0-16.38-8c-14.89-7.77-30.2-14.75-45-22.68C29.27,302,17.37,298.38,8,290.65-.92,282-1.05,268.08,3.37,256.23c3.16-8.46,4.69-12.67,8.31-23.75A64.47,64.47,0,0,0,14.29,222v-2.47a27.43,27.43,0,0,0-2.44-8.46c-2.79-8.61-5.79-17.14-8.48-25.77C-2.26,174.5-.92,159.56,8,150.88c9.37-7.73,21.27-11.37,31.73-17.36,14.83-7.93,30.14-14.91,45-22.68a66.08,66.08,0,0,0,16.38-8c9.67-5.41,19.62-10.25,29.59-15.07,5.77-1.81,11.14-4.93,16.33-8,30.51-17.45,63-31,93.74-48,7-3,19-9.48,19-9.48,5-2.38,1.88-.86,7.15-3.55,10.2-4.47,19.74-10.31,29.83-15,11.47-5.12,20.59-4.91,31.43,0,4.41,2.06,18.74,9,30.05,14.92,35.86,18.9,72.52,36.53,108.56,55.2,12.31,6.35,62.53,32.05,73.42,36.91,22.69,11.15,45.14,22.76,67.64,34.27,5.54,3,12.68,7.84,14.86,14,3.15,8.93,2.1,17.47-.78,25.9,0,0-5.39,15.08-8.28,23.61a35.74,35.74,0,0,0-1.93,11"/><path class="cls-2" d="M600.83,219.53c0-.1,0-.21,0-.31.93-17.43,13-32.7,14.41-50.26-1.08-13.75-16.61-16.74-26.54-22.34C506.39,104.45,423.48,63.22,341,21.26c-11.1-5-21.45-13.71-34.57-10.21a282.67,282.67,0,0,0-25.85,12.87c-7.91,4.15-19.92,9.73-19.92,9.73-55.87,28.4-112.11,55.94-167.55,85-15.37,7-30.21,15.15-45.45,22.43C36,148.72,20.2,151.34,12.18,163.56c-4.8,13.91,5.58,26.81,8.47,40.07a30.7,30.7,0,0,1,4.27,15.9V222c-.28,5.43-2.45,11.13-4.27,15.9C15.37,252.48,6.7,263.84,12.18,278c8,12.22,23.84,14.84,35.52,22.48,15.24,7.28,30.08,15.41,45.45,22.43,55.44,29.06,111.68,56.6,167.55,85,0,0,12,5.58,19.92,9.73a282.67,282.67,0,0,0,25.85,12.87c13.12,3.5,23.47-5.26,34.57-10.21,82.44-42,165.35-83.19,247.67-125.36,9.93-5.6,25.46-8.59,26.54-22.34-1.4-17.56-13.48-32.83-14.41-50.26,0-.1,0-.21,0-.31Z"/><path class="cls-3" d="M299.57,22.22,27,159.34s-5.51,3.21-6.65,7.38,1.28,11.62,1.28,11.62l11.65,33.54s2,7.09,2,9.52c0,2.2-2.06,8.56-2.06,8.56l-12.8,36.76s-.93,4.83.47,7.68a11.75,11.75,0,0,0,5.73,5.13L295.85,415.81s11.58,5.92,17,5.92c5.94,0,16-5.83,16-5.83L594.46,282s7.9-4.64,9.92-9.57c1.36-3.3-1.25-12.74-1.25-12.74l-12.39-30.56s-1.7-7.37-1.6-9.87,2.43-10,2.43-10L604,177.51s1.63-5.86,0-10.16c-1.47-4-8.31-7.6-8.31-7.6L327.24,23.1s-8.32-4.79-14-4.92S299.57,22.22,299.57,22.22Z"/><path class="cls-2" d="M32.12,232.71s-4.33,13.76,1.8,20.54c5.12,5.67,10,5.45,17.85-1.25a112.27,112.27,0,0,0,14.87-16.57,310.23,310.23,0,0,0,23.74-37.27c4.5-8.76,11.93-23.07,19.1-34.57a104.32,104.32,0,0,1,11.92-16.06,45.33,45.33,0,0,1,13.73-9.79c2.31-1.09,11.45-4.62,10.73,2.55s-7.7,27.5-10.2,37.54c-1.66,6.69-5.5,18.64-9,30.7-2.72,9.37-7.8,26.28-12.23,36.61-1.16,2.7-2,3.46-.85,3s6-5.35,11.6-13.38c10.33-14.74,24.86-38.32,34.75-52a230.54,230.54,0,0,1,16.85-19.86,122.65,122.65,0,0,1,15.46-13.74,110.73,110.73,0,0,1,16.52-9.83c5.91-2.52,11.15-2.9,13.54-1.46s.57,6-1.82,9.59-9.86,13.75-12.44,17.46c-3.52,5.06-18.12,27.79-25.78,44.66-6.66,14.66-13.85,39.22-8.78,46.73,1.3,1.93,4.3,6.22,10.18,5.57,5.63-.63,15-5,18.17-7.75a68.18,68.18,0,0,0,5.26-6l4.07,9.33L204,260.34s-10.82,9.57-16.56,12.91-30.48,11-34.2-6.22c-8-37.12,37.8-99,43.63-105.69,8.23-9.41-1.54-3.35-1.54-3.35a86.7,86.7,0,0,0-7.22,5.61,95.22,95.22,0,0,0-8.84,9.55c-2.49,2.82-7.1,8.12-11.34,14-7.63,10.54-15.14,23.06-17.11,25.8-4.08,5.68-11.71,16.78-14.8,21.1-3.42,4.77-10.75,15.25-17.54,23.34a136.18,136.18,0,0,1-11.39,11.58c-3.91,3.81-12.91,8.85-16.26,9.33s-6.7.24-4.3-5.74,15.14-38.53,19.1-51.2c2.71-8.66,15.29-47.54,19.76-56.92,3.7-7.78,3.54-11.31,2.28-11.38s-2.65.08-7.19,7c-1.56,2.38-4.37,7.13-7.19,12.2-5.39,9.68-10.73,20.9-10.73,20.9l-14.35,28s-13.87,24.63-21.28,32.52-20.54,20.52-29.17,23.2c-8.89,2.75-15,2.89-17.7-.24a27,27,0,0,1-2.88-4.11l7.11-19.88Z"/><polygon class="cls-4" points="165.44 307.1 165.04 317.67 123.15 307.49 165.44 307.1"/><polygon class="cls-4" points="460.75 308.25 461.14 318.82 503.03 308.64 460.75 308.25"/><path class="cls-5" d="M174.71,319.05a8.2,8.2,0,0,0,4.15,1.17c2.37,0,3.75-1.25,3.75-3.06s-1-2.63-3.38-3.56c-2.92-1-4.73-2.55-4.73-5.08,0-2.79,2.31-4.86,5.79-4.86a8.15,8.15,0,0,1,4,.88l-.64,1.89a7.13,7.13,0,0,0-3.4-.85c-2.45,0-3.38,1.46-3.38,2.68,0,1.67,1.09,2.5,3.56,3.46,3,1.17,4.57,2.63,4.57,5.26s-2,5.16-6.27,5.16a9.26,9.26,0,0,1-4.57-1.14Z"/><path class="cls-5" d="M188.14,321.87V304h2.53L196.4,313a50.76,50.76,0,0,1,3.22,5.82l.05,0c-.21-2.39-.27-4.57-.27-7.36V304h2.18v17.92h-2.34l-5.69-9.09a56.62,56.62,0,0,1-3.35-6l-.08,0c.13,2.26.19,4.41.19,7.39v7.66Z"/><path class="cls-5" d="M220.94,312.73c0,6.17-3.75,9.44-8.32,9.44-4.73,0-8.05-3.67-8.05-9.09,0-5.69,3.54-9.41,8.32-9.41S220.94,307.41,220.94,312.73ZM207,313c0,3.83,2.07,7.26,5.71,7.26s5.74-3.38,5.74-7.44c0-3.56-1.86-7.28-5.71-7.28S207,309.09,207,313Z"/><path class="cls-5" d="M226.87,321.87,222.32,304h2.45L226.9,313c.53,2.23,1,4.47,1.33,6.19h.05c.29-1.78.85-3.91,1.46-6.22l2.39-9h2.42l2.18,9.09c.5,2.13,1,4.25,1.25,6.14H238c.37-2,.88-4,1.44-6.19l2.37-9h2.37l-5.08,17.92H236.7l-2.26-9.33a54.08,54.08,0,0,1-1.17-5.85h-.05a55.9,55.9,0,0,1-1.38,5.85l-2.55,9.33Z"/><path class="cls-5" d="M263.29,321.87c-.5-.5-1-1-1.67-1.75a7.34,7.34,0,0,1-5.24,2c-3.48,0-5.5-2.34-5.5-5,0-2.45,1.46-4.12,3.51-5.24v-.08a6.16,6.16,0,0,1-1.49-3.75,4.35,4.35,0,0,1,4.55-4.41,3.73,3.73,0,0,1,4,3.8c0,1.89-1.09,3.38-3.93,4.79v.08c1.51,1.75,3.22,3.72,4.36,5a13.14,13.14,0,0,0,1.73-5.24h2.13a13.62,13.62,0,0,1-2.58,6.62c1,1,1.89,2,3,3.16Zm-2.82-3.08c-1.06-1.17-3.06-3.35-5.05-5.64a4.4,4.4,0,0,0-2.31,3.64,3.53,3.53,0,0,0,3.67,3.62A5,5,0,0,0,260.47,318.79ZM255,307.86a5,5,0,0,0,1.36,3.22c1.81-1,3-2,3-3.51a2.11,2.11,0,0,0-2.07-2.31A2.33,2.33,0,0,0,255,307.86Z"/><path class="cls-5" d="M276.1,305.92h-5.45v-2h13.26v2h-5.48v15.95H276.1Z"/><path class="cls-5" d="M295.19,313.47h-7v6.46H296v1.94H285.91V304h9.68v1.94h-7.36v5.66h7Z"/><path class="cls-5" d="M311.51,321.29a11.47,11.47,0,0,1-4.73.85c-5.05,0-8.85-3.19-8.85-9.06,0-5.61,3.8-9.41,9.36-9.41a9.61,9.61,0,0,1,4.25.8l-.56,1.89a8.44,8.44,0,0,0-3.62-.74c-4.2,0-7,2.68-7,7.39,0,4.39,2.53,7.2,6.88,7.2a9.25,9.25,0,0,0,3.77-.74Z"/><path class="cls-5" d="M316.73,304v7.5h8.67V304h2.34v17.92h-2.34v-8.4h-8.67v8.4h-2.31V304Z"/><path class="cls-5" d="M349.9,321.29a11.47,11.47,0,0,1-4.73.85c-5.05,0-8.85-3.19-8.85-9.06,0-5.61,3.8-9.41,9.36-9.41a9.61,9.61,0,0,1,4.25.8l-.56,1.89a8.44,8.44,0,0,0-3.62-.74c-4.2,0-7,2.68-7,7.39,0,4.39,2.53,7.2,6.88,7.2a9.25,9.25,0,0,0,3.77-.74Z"/><path class="cls-5" d="M367.55,312.73c0,6.17-3.75,9.44-8.32,9.44-4.73,0-8.05-3.67-8.05-9.09,0-5.69,3.54-9.41,8.32-9.41S367.55,307.41,367.55,312.73Zm-13.9.29c0,3.83,2.07,7.26,5.71,7.26s5.74-3.38,5.74-7.44c0-3.56-1.86-7.28-5.71-7.28S353.65,309.09,353.65,313Z"/><path class="cls-5" d="M385.66,314c-.13-2.5-.29-5.5-.27-7.73h-.08c-.61,2.1-1.36,4.33-2.26,6.8l-3.16,8.69h-1.75l-2.9-8.53c-.85-2.53-1.57-4.84-2.07-7h-.05c-.05,2.23-.19,5.24-.34,7.92l-.48,7.68h-2.21L371.33,304h3l3.06,8.67c.74,2.21,1.36,4.17,1.81,6h.08c.45-1.81,1.09-3.78,1.89-6L384.3,304h3l1.12,17.92h-2.26Z"/><path class="cls-5" d="M391.93,304.17a26.77,26.77,0,0,1,4.44-.35,7.36,7.36,0,0,1,5,1.49,4.81,4.81,0,0,1,1.57,3.75,5.28,5.28,0,0,1-1.38,3.83,7.42,7.42,0,0,1-5.48,2,8,8,0,0,1-1.86-.16v7.18h-2.31Zm2.31,8.64a7.77,7.77,0,0,0,1.91.19c2.79,0,4.49-1.36,4.49-3.83s-1.67-3.51-4.23-3.51a9.71,9.71,0,0,0-2.18.19Z"/><path class="cls-5" d="M406.74,316.24l-1.86,5.64h-2.39L408.57,304h2.79l6.11,17.92H415l-1.91-5.64Zm5.87-1.81-1.75-5.16c-.4-1.17-.67-2.23-.93-3.27h-.05c-.27,1.06-.56,2.15-.9,3.24l-1.75,5.18Z"/><path class="cls-5" d="M420.11,321.87V304h2.53l5.74,9.06a50.78,50.78,0,0,1,3.22,5.82l.05,0c-.21-2.39-.27-4.57-.27-7.36V304h2.18v17.92h-2.34l-5.69-9.09a57,57,0,0,1-3.35-6l-.08,0c.13,2.26.19,4.41.19,7.39v7.66Z"/><path class="cls-5" d="M441.41,321.87v-7.6L435.75,304h2.63l2.53,4.94c.69,1.36,1.22,2.45,1.78,3.7h.05c.5-1.17,1.12-2.34,1.81-3.7l2.58-4.94h2.63l-6,10.29v7.63Z"/><path class="cls-2" d="M203.62,241.34c4.78-19.3,9.33-37.7,34.49-37.7s20.61,18.39,15.83,37.7c-4.73,19.1-9.33,37.69-34.49,37.69S198.89,260.44,203.62,241.34Zm34.87,0c4.63-18.7,5.52-26.78-3.07-26.78s-11.7,8.08-16.33,26.78-5.52,26.78,3.07,26.78S233.86,260,238.49,241.34Z"/><path class="cls-2" d="M324.42,204.86,311.61,256.6C308.91,267.51,299.89,279,281.3,279c-16.78,0-22.71-8.69-19.31-22.43l12.81-51.74h15.26L277.5,255.59c-2.23,9,.74,12.53,6.3,12.53,6.67,0,10.8-4.45,12.8-12.53l12.56-50.73Z"/><path class="cls-2" d="M318.88,277.82l18.06-73h20.62l6.9,50.53h.2l12.51-50.53h14.25l-18.06,73H353.24l-6.7-53.36h-.2l-13.21,53.36Z"/><path class="cls-2" d="M447.7,204.86l-3,12.13h-17l-15.06,60.84H397.4L412.46,217h-17l3-12.13Z"/><path class="cls-2" d="M436.71,277.82l18.06-73h39.82l-2.78,11.22H467.25l-4.45,18h22.64l-2.78,11.22H460l-5.28,21.32h25.37l-2.78,11.22Z"/><path class="cls-2" d="M495.56,241.34c4.78-19.3,9.33-37.7,34.49-37.7,15.56,0,19.7,8.59,15.22,24.25h-15c2.4-9.7,1.58-13.34-3-13.34-8.59,0-11.7,8.08-16.33,26.78s-5.52,26.78,3.07,26.78c7.07,0,9-9.09,10.65-14.86H539.8C535,272.77,525.64,279,511.39,279,486.23,279,490.83,260.44,495.56,241.34Z"/><path class="cls-4" d="M308.78,122.75S409,122.59,448,122.43c.11,0,.42,0-.09-.13-3.2-.54-20-2.74-30-6.28A125.14,125.14,0,0,1,392,102.85c-3.84-3.19-7.69-7.27-12-11.36C376,87.77,371.28,85,368.09,82c-2-1.9-6.75-5.92-7.65-6s-2.23-.9-2.85-.87S354.23,77,354.23,77c1.57,1.19,5.32,2.25,5.39,2.93A5.56,5.56,0,0,0,362,83.56c4.33,3.52,5.48,9.65,5.48,9.65s-14.65-10.08-21.17-15.53C340.18,72.59,327.35,57,326.65,57s-14.93,3.77-9.19,6.9c3.86,2.1,8.76,3.73,8.76,7.75s-6.71,4.8-9.95,5.38c-5.93,1.06-26.71,4.7-6.9,16.38C330,105.56,308.78,122.75,308.78,122.75Z"/><path class="cls-2" d="M311.63,52c-5.66.91-12.47,11.34-17.17,13.39-1.85.81-4-.56-5.56.71-3,2.45-8.41,12.92-18.73,21-5.82,4.55-19.33,11.82-29.57,18.21-8.09,5-14.11,9.41-15.07,8.59-1.56-1.33,5.58-8.23,7-9.72,1.23-1.3,4.63-3.39,6.08-4.44a43.65,43.65,0,0,0,6.68-6.1c.76-.95,8.32-2.93,8.11-3.69-.42-1.51-.72-3.3-1.18-3.23-1.68.24-8.57,2.53-8.84,2.54-1,0-2.6,0-12.16,5.5-5,2.87-5.19,3.59-12.27,8.08a95.76,95.76,0,0,1-12.22,6.55s-8.22,6.21-13.11,7.72c-9.9,3.05-13.21,3.24-26.5,5.23a.14.14,0,0,0,0,.29c12.51,0,93.5,0,100.59-.1,7.69-.15,10-.38,14.78-1.65,4.46-1.19,7.63-3.56,12.8-7.1,2.31-1.59,6.66-5.87,5.88-11.31-1-7.21-13.92-8.54-12.37-16.73.52-2.75,3.48-6.69,9.39-8.94,2.47-.94,14.86-1.38,15.52-4.67.49-2.42-6.49-4.72-6.94-7.25-.51-2.88,4.09-7.07,8.9-7.7,1.61-.21,1.65-.62,1.07-1.16C313.9,53.4,313,51.76,311.63,52Z"/></g></g></svg>